PathFileType	4	(x/y/z)	S02_SL_Cal_T01
DataRate	CameraRate	NumFrames	NumMarkers	Units	OrigDataRate	OrigDataStartFrame	OrigNumFrames
240	240	7	51	mm	240	1501	2400
Frame#	Time	Sternum			R.Acromium			L.Acromium			Top.Head			R.ASIS			L.ASIS			R.PSIS			L.PSIS			R.Great.Tro			L.Great.Tro			R.Iliac.Crest			L.Iliac.Crest			V.Sacral			R.Thigh.Upper.Post			R.Thigh.Lower.Ant			R.Thigh.Lower.Post			R.Thigh.Upper.Ant			R.Knee.Lat			R.Knee.Med			R.Shank.Upper.Post			R.Shank.Lower.Ant			R.Shank.Lower.Post			R.Shank.Upper.Ant			R.Ankle.Lat			R.Ankle.Med			R.Heel.Upper			R.Heel.Med			R.Heel.Lat			R.Toe.Lat			R.Toe.Med			R.Toe.Tip			L.Thigh.Upper.Post			L.Thigh.Lower.Ant			L.Thigh.Lower.Post			L.Thigh.Upper.Ant			L.Knee.Lat			L.Knee.Med			L.Shank.Upper.Post			L.Shank.Lower.Ant			L.Shank.Lower.Post			L.Shank.Upper.Ant			L.Ankle.Lat			L.Ankle.Med			L.Heel.Upper			L.Heel.Med			L.Heel.Lat			L.Toe.Lat			L.Toe.Med			L.Toe.Tip			Cervical.Spine			Back			
		X1	Y1	Z1	X2	Y2	Z2	X3	Y3	Z3	X4	Y4	Z4	X5	Y5	Z5	X6	Y6	Z6	X7	Y7	Z7	X8	Y8	Z8	X9	Y9	Z9	X10	Y10	Z10	X11	Y11	Z11	X12	Y12	Z12	X13	Y13	Z13	X14	Y14	Z14	X15	Y15	Z15	X16	Y16	Z16	X17	Y17	Z17	X18	Y18	Z18	X19	Y19	Z19	X20	Y20	Z20	X21	Y21	Z21	X22	Y22	Z22	X23	Y23	Z23	X24	Y24	Z24	X25	Y25	Z25	X26	Y26	Z26	X27	Y27	Z27	X28	Y28	Z28	X29	Y29	Z29	X30	Y30	Z30	X31	Y31	Z31	X32	Y32	Z32	X33	Y33	Z33	X34	Y34	Z34	X35	Y35	Z35	X36	Y36	Z36	X37	Y37	Z37	X38	Y38	Z38	X39	Y39	Z39	X40	Y40	Z40	X41	Y41	Z41	X42	Y42	Z42	X43	Y43	Z43	X44	Y44	Z44	X45	Y45	Z45	X46	Y46	Z46	X47	Y47	Z47	X48	Y48	Z48	X49	Y49	Z49	X50	Y50	Z50	X51	Y51	Z51	

1501	6.25	640.72	1125.1	313.24	508.14	1356.9	442.82	521.03	1348.3	146.67	558.8	1643	290.63	600.89	938.48	418.99	629.04	924.58	206.84	393.1	971.8	338.06	397.3	970.62	262.79	510.27	834.77	505.44	504.43	840.73	108.08	494.99	989.31	464.29	515.51	974.33	130.76	369.43	923.07	294.25	510.92	630.96	502.69	558.03	544.86	473.82	486.57	544.21	489.22	577.5	631.97	483.77	497.26	464.53	477.81	490.53	438.54	335.51	417.71	258.18	475.77	494.61	179.62	469.38	428.15	185.23	472.33	490.34	249.15	481.05	452.44	89.814	467.99	467.98	97.047	385.24	398.29	72.392	408.52	415.46	40.701	383.09	397.8	41.8	444.78	552.85	41.249	508.28	598.91	35.491	405.46	638.69	64.483	467.41	454.86	624.97	121.48	520.9	536.52	120.66	443.1	535.33	135.64	525.27	631.25	107	493.33	459.87	124.89	487.47	443.96	264.71	409.87	289.67	116.06	486.8	207.99	115.32	415.16	215.85	125.84	474.23	283.23	107.04	457.64	100.11	121.08	477.72	92.32	201.66	404.3	65.524	159.63	417.76	39.692	191.62	407.5	38.102	130.75	567.95	37.063	79.439	603.19	46.992	184.66	656.09	65.184	130.96	437.25	1406.5	289.32	376.61	1154	298.15
1502	6.2542	640.7	1125.1	313.22	508.13	1356.9	442.8	520.99	1348.3	146.64	558.77	1643	290.57	600.9	938.48	418.98	629.03	924.59	206.83	393.1	971.8	338.06	397.29	970.61	262.8	510.28	834.77	505.44	504.42	840.73	108.08	495	989.31	464.29	515.49	974.32	130.75	369.43	923.07	294.25	510.93	630.96	502.69	558.03	544.86	473.82	486.58	544.21	489.22	577.51	631.98	483.77	497.26	464.53	477.81	490.53	438.54	335.51	417.71	258.18	475.77	494.61	179.62	469.38	428.15	185.23	472.33	490.34	249.14	481.05	452.44	89.815	467.99	467.98	97.045	385.24	398.29	72.393	408.52	415.46	40.702	383.09	397.8	41.8	444.78	552.85	41.249	508.28	598.91	35.491	405.46	638.69	64.482	467.41	454.86	624.97	121.48	520.9	536.52	120.65	443.09	535.33	135.64	525.26	631.25	107	493.32	459.87	124.89	487.46	443.96	264.71	409.86	289.67	116.06	486.8	207.99	115.32	415.16	215.85	125.84	474.23	283.23	107.04	457.64	100.11	121.08	477.72	92.32	201.66	404.3	65.524	159.63	417.76	39.692	191.62	407.49	38.102	130.75	567.95	37.062	79.439	603.19	46.993	184.65	656.09	65.184	130.96	437.22	1406.4	289.3	376.6	1154	298.15
1503	6.2583	640.68	1125.1	313.19	508.11	1356.9	442.78	520.94	1348.3	146.62	558.74	1643	290.52	600.9	938.49	418.97	629.02	924.59	206.82	393.1	971.79	338.07	397.28	970.61	262.81	510.29	834.77	505.44	504.4	840.73	108.07	495	989.31	464.29	515.47	974.32	130.75	369.42	923.06	294.26	510.94	630.96	502.69	558.04	544.86	473.81	486.58	544.21	489.22	577.52	631.98	483.76	497.26	464.53	477.81	490.53	438.54	335.51	417.71	258.18	475.77	494.61	179.62	469.38	428.15	185.23	472.34	490.34	249.14	481.05	452.44	89.815	467.99	467.98	97.043	385.24	398.29	72.394	408.52	415.46	40.703	383.09	397.8	41.799	444.78	552.86	41.248	508.28	598.91	35.49	405.46	638.69	64.481	467.41	454.85	624.97	121.48	520.89	536.52	120.65	443.09	535.33	135.64	525.25	631.25	107	493.32	459.87	124.88	487.46	443.95	264.71	409.86	289.66	116.06	486.79	207.99	115.32	415.16	215.85	125.84	474.23	283.23	107.04	457.63	100.1	121.08	477.72	92.321	201.66	404.3	65.523	159.63	417.76	39.693	191.62	407.49	38.102	130.75	567.95	37.062	79.439	603.19	46.993	184.65	656.09	65.185	130.96	437.19	1406.4	289.29	376.58	1154	298.15
1504	6.2625	640.66	1125.1	313.17	508.09	1356.9	442.77	520.9	1348.3	146.6	558.71	1643	290.46	600.9	938.49	418.96	629.01	924.6	206.81	393.1	971.79	338.07	397.28	970.6	262.81	510.31	834.77	505.44	504.39	840.73	108.07	495	989.32	464.28	515.45	974.31	130.75	369.42	923.06	294.27	510.94	630.96	502.69	558.04	544.86	473.81	486.59	544.21	489.22	577.52	631.98	483.76	497.27	464.53	477.81	490.53	438.54	335.51	417.71	258.18	475.77	494.6	179.62	469.38	428.15	185.23	472.34	490.34	249.14	481.05	452.44	89.815	467.99	467.98	97.042	385.24	398.29	72.394	408.52	415.46	40.704	383.09	397.8	41.799	444.78	552.86	41.248	508.28	598.91	35.489	405.46	638.69	64.481	467.41	454.85	624.97	121.48	520.88	536.52	120.65	443.08	535.33	135.64	525.25	631.25	107	493.31	459.87	124.88	487.45	443.95	264.7	409.86	289.66	116.05	486.79	207.99	115.31	415.16	215.84	125.84	474.22	283.23	107.04	457.63	100.1	121.08	477.72	92.322	201.66	404.29	65.523	159.63	417.76	39.693	191.62	407.49	38.102	130.75	567.95	37.062	79.439	603.19	46.993	184.65	656.09	65.185	130.96	437.15	1406.4	289.27	376.57	1154	298.15
1505	6.2667	640.64	1125.1	313.14	508.07	1356.9	442.75	520.86	1348.2	146.58	558.68	1643	290.41	600.9	938.5	418.94	629	924.61	206.8	393.09	971.79	338.08	397.27	970.6	262.82	510.32	834.77	505.44	504.38	840.73	108.07	495.01	989.32	464.28	515.43	974.31	130.74	369.42	923.06	294.28	510.95	630.96	502.69	558.05	544.86	473.8	486.6	544.21	489.22	577.53	631.98	483.75	497.27	464.53	477.81	490.53	438.54	335.51	417.71	258.18	475.77	494.6	179.62	469.38	428.15	185.23	472.34	490.34	249.14	481.05	452.44	89.816	467.99	467.99	97.04	385.24	398.29	72.395	408.52	415.46	40.705	383.09	397.8	41.799	444.78	552.86	41.248	508.28	598.91	35.489	405.46	638.69	64.48	467.41	454.84	624.97	121.48	520.88	536.52	120.65	443.08	535.33	135.64	525.24	631.26	106.99	493.31	459.87	124.88	487.45	443.95	264.7	409.86	289.66	116.05	486.79	207.99	115.31	415.15	215.84	125.84	474.22	283.23	107.04	457.63	100.1	121.08	477.72	92.322	201.66	404.29	65.523	159.63	417.76	39.693	191.62	407.49	38.102	130.76	567.95	37.062	79.439	603.19	46.993	184.65	656.09	65.185	130.96	437.12	1406.4	289.26	376.55	1154	298.16
1506	6.2708	640.61	1125.1	313.12	508.06	1356.9	442.73	520.81	1348.2	146.56	558.64	1643	290.35	600.91	938.5	418.93	628.99	924.61	206.78	393.09	971.78	338.09	397.26	970.59	262.82	510.33	834.77	505.44	504.37	840.73	108.07	495.01	989.32	464.28	515.41	974.3	130.74	369.41	923.05	294.28	510.96	630.96	502.69	558.05	544.86	473.8	486.61	544.22	489.22	577.53	631.98	483.75	497.28	464.53	477.81	490.53	438.54	335.51	417.71	258.18	475.77	494.6	179.61	469.38	428.15	185.23	472.35	490.34	249.13	481.05	452.43	89.816	468	467.99	97.038	385.24	398.29	72.396	408.52	415.46	40.706	383.09	397.8	41.799	444.78	552.86	41.248	508.28	598.9	35.488	405.46	638.69	64.479	467.41	454.84	624.97	121.48	520.87	536.52	120.64	443.07	535.33	135.64	525.24	631.26	106.99	493.3	459.87	124.88	487.45	443.95	264.7	409.86	289.66	116.05	486.79	207.99	115.31	415.15	215.84	125.83	474.22	283.23	107.03	457.63	100.1	121.09	477.72	92.323	201.66	404.29	65.522	159.63	417.76	39.693	191.62	407.49	38.102	130.76	567.95	37.062	79.439	603.19	46.993	184.65	656.09	65.186	130.96	437.08	1406.4	289.25	376.54	1154	298.16
1507	6.275	640.59	1125.1	313.09	508.04	1356.9	442.71	520.77	1348.2	146.54	558.61	1643	290.3	600.91	938.51	418.92	628.98	924.62	206.77	393.09	971.78	338.09	397.25	970.59	262.83	510.34	834.76	505.44	504.36	840.73	108.06	495.02	989.32	464.28	515.39	974.3	130.73	369.41	923.05	294.29	510.97	630.96	502.69	558.06	544.86	473.8	486.62	544.22	489.22	577.54	631.98	483.74	497.28	464.53	477.81	490.53	438.54	335.51	417.71	258.18	475.77	494.6	179.61	469.38	428.15	185.22	472.35	490.34	249.13	481.05	452.43	89.816	468	467.99	97.037	385.25	398.29	72.397	408.52	415.46	40.707	383.09	397.8	41.799	444.78	552.86	41.248	508.28	598.9	35.487	405.46	638.69	64.478	467.41	454.83	624.97	121.48	520.87	536.52	120.64	443.07	535.33	135.64	525.23	631.26	106.99	493.3	459.88	124.88	487.44	443.95	264.69	409.85	289.66	116.05	486.79	207.99	115.31	415.15	215.84	125.83	474.22	283.23	107.03	457.63	100.09	121.09	477.72	92.323	201.66	404.29	65.522	159.63	417.76	39.692	191.62	407.49	38.102	130.76	567.95	37.062	79.439	603.19	46.993	184.65	656.09	65.186	130.96	437.05	1406.4	289.24	376.52	1153.9	298.16
